<svg xmlns="http://www.w3.org/2000/svg" xmlns:xlink="http://www.w3.org/1999/xlink" fill="none" version="1.1" width="25" height="24.375" viewBox="0 0 25 24.375"><g><path d="M5.56819,20L0,24.375L0,1.25C0,0.55965,0.55965,0,1.25,0L23.75,0C24.4404,0,25,0.55965,25,1.25L25,18.75C25,19.4404,24.4404,20,23.75,20L5.56819,20ZM2.5,19.2314L4.70352,17.5L22.5,17.5L22.5,2.5L2.5,2.5L2.5,19.2314ZM12.5223,14.6246L8.32376,10.4262C7.22541,9.32788,7.22541,7.54711,8.32376,6.44876C9.42211,5.35041,11.2029,5.35041,12.3012,6.44876L12.5223,6.66974L12.7431,6.44876C13.8415,5.35041,15.6222,5.35041,16.7206,6.44876C17.819,7.54711,17.819,9.32788,16.7206,10.4262L12.5223,14.6246Z" fill="#000000" fill-opacity="1" style="mix-blend-mode:passthrough"/></g></svg>