<svg xmlns="http://www.w3.org/2000/svg" xmlns:xlink="http://www.w3.org/1999/xlink" fill="none" version="1.1" width="25" height="24.35897445678711" viewBox="0 0 25 24.35897445678711"><g><path d="M7.69231,17.9487Q16.6667,19.2308,20.5128,23.0769L21.7949,23.0769C22.5029,23.0769,23.0769,22.5029,23.0769,21.7949L23.0769,14.0218C24.1828,13.7372,25,12.7332,25,11.5385C25,10.3437,24.1828,9.33974,23.0769,9.05513L23.0769,1.28205C23.0769,0.574,22.5029,0,21.7949,0L20.5128,0Q16.6667,3.84615,7.69231,5.12821L2.5641,5.12821C1.14799,5.12821,0,6.27619,0,7.69231L0,15.3846C0,16.8008,1.14799,17.9487,2.5641,17.9487L3.84615,17.9487L5.12821,24.359L7.69231,24.359L7.69231,17.9487ZM10.2564,7.25795C11.1324,7.07,12.2147,6.81017,13.3837,6.46632C15.5353,5.83351,18.2692,4.83669,20.5128,3.30074L20.5128,19.7762C18.2692,18.2403,15.5353,17.2435,13.3837,16.6106C12.2147,16.2668,11.1324,16.0069,10.2564,15.819L10.2564,7.25795ZM2.5641,7.69231L7.69231,7.69231L7.69231,15.3846L2.5641,15.3846L2.5641,7.69231Z" fill="#000000" fill-opacity="1" style="mix-blend-mode:passthrough"/></g></svg>