<svg xmlns="http://www.w3.org/2000/svg" xmlns:xlink="http://www.w3.org/1999/xlink" fill="none" version="1.1" width="18.000019073486328" height="19.999990463256836" viewBox="0 0 18.000019073486328 19.999990463256836"><g><path d="M18,3.93747C16.2608,5.90794,13.8846,7.30285,11.1937,7.79995C10.769,7.02524,9.94582,6.5,9.00002,6.5C8.05422,6.5,7.23102,7.02524,6.80632,7.79995C4.11537,7.30285,1.73917,5.90794,0,3.93747L0,1C0,0.44771,0.44772,0,1,0L17,0C17.5523,0,18,0.44771,18,1L18,3.93747ZM18,6.72423L18,19C18,19.5523,17.5523,20,17,20L1,20C0.44772,20,0,19.5523,0,19L0,6.72423C1.86013,8.28689,4.13269,9.37459,6.63087,9.80039C6.96459,10.7886,7.89922,11.5,9.00002,11.5C10.1008,11.5,11.0354,10.7886,11.3691,9.80039C13.8673,9.37459,16.1399,8.28689,18,6.72423Z" fill="#FF0000" fill-opacity="1" style="mix-blend-mode:passthrough"/></g></svg>