<svg xmlns="http://www.w3.org/2000/svg" xmlns:xlink="http://www.w3.org/1999/xlink" fill="none" version="1.1" width="16.66666603088379" height="16.66666603088379" viewBox="0 0 16.66666603088379 16.66666603088379"><g><path d="M8.33333,16.6667C3.73096,16.6667,0,12.9357,0,8.33333C0,3.73096,3.73096,0,8.33333,0C12.9357,0,16.6667,3.73096,16.6667,8.33333C16.6667,12.9357,12.9357,16.6667,8.33333,16.6667ZM7.5,10.8333L7.5,12.5L9.16667,12.5L9.16667,10.8333L7.5,10.8333ZM9.16667,9.46258C10.3714,9.104,11.25,7.98792,11.25,6.66667C11.25,5.05583,9.94417,3.75,8.33333,3.75C6.91833,3.75,5.73864,4.75766,5.47276,6.09455L7.10733,6.42147C7.22133,5.84853,7.72692,5.41667,8.33333,5.41667C9.02367,5.41667,9.58333,5.97631,9.58333,6.66667C9.58333,7.357,9.02367,7.91667,8.33333,7.91667C7.87308,7.91667,7.5,8.28975,7.5,8.75L7.5,10L9.16667,10L9.16667,9.46258Z" fill="#FDB13E" fill-opacity="1" style="mix-blend-mode:passthrough"/></g></svg>