<?xml version="1.0" encoding="UTF-8"?>
<!DOCTYPE svg PUBLIC "-//W3C//DTD SVG 1.1//EN" "http://www.w3.org/Graphics/SVG/1.1/DTD/svg11.dtd">
<svg viewBox="0 0 512 512" xmlns="http://www.w3.org/2000/svg" version="1.1" width="512px" height="512px" style="shape-rendering:geometricPrecision; text-rendering:geometricPrecision; image-rendering:optimizeQuality; fill-rule:evenodd; clip-rule:evenodd" xmlns:xlink="http://www.w3.org/1999/xlink">
    <g><path style="opacity:0.976" fill="#010100" d="M 60.5,-0.5 C 66.1667,-0.5 71.8333,-0.5 77.5,-0.5C 122.118,10.973 161.785,31.6397 196.5,61.5C 225.285,55.8249 254.285,54.3249 283.5,57C 294.564,58.2484 305.564,59.5818 316.5,61C 340.263,38.7713 367.596,22.1046 398.5,11C 410.227,6.99332 421.893,3.15998 433.5,-0.5C 439.167,-0.5 444.833,-0.5 450.5,-0.5C 465.131,4.3015 473.964,14.3015 477,29.5C 482.212,75.4497 479.045,120.783 467.5,165.5C 486.964,199.054 499.797,235.054 506,273.5C 508.096,287.281 509.93,300.948 511.5,314.5C 511.5,326.5 511.5,338.5 511.5,350.5C 501.727,385.191 483.394,414.691 456.5,439C 406.637,482.353 348.637,506.52 282.5,511.5C 264.5,511.5 246.5,511.5 228.5,511.5C 155.682,506.187 93.5152,477.854 42,426.5C 21.3113,404.787 7.14465,379.454 -0.5,350.5C -0.5,338.167 -0.5,325.833 -0.5,313.5C 2.72869,273.544 11.8954,234.877 27,197.5C 31.719,186.394 37.219,175.728 43.5,165.5C 31.9552,120.787 28.7885,75.4537 34,29.5C 37.0361,14.3015 45.8695,4.3015 60.5,-0.5 Z"/></g>
    <g><path style="opacity:1" fill="#ee9253" d="M 64.5,19.5 C 108.089,27.2959 146.423,45.7959 179.5,75C 169.252,87.2893 156.252,93.956 140.5,95C 138.5,94 136.5,93 134.5,92C 120.106,76.9372 105.106,62.6039 89.5,49C 78.4482,41.7699 66.6149,39.6033 54,42.5C 51.6843,32.0015 55.1843,24.3348 64.5,19.5 Z"/></g>
    <g><path style="opacity:1" fill="#ee9253" d="M 437.5,19.5 C 452.903,19.5752 459.236,27.2419 456.5,42.5C 451.303,40.6488 445.97,40.1488 440.5,41C 430.536,43.8152 421.536,48.4818 413.5,55C 401.167,67.3333 388.833,79.6667 376.5,92C 370.846,95.7394 364.846,96.406 358.5,94C 347.923,89.8807 338.923,83.5473 331.5,75C 351.34,57.2346 373.674,43.2346 398.5,33C 411.432,27.9683 424.432,23.4683 437.5,19.5 Z"/></g>
    <g><path style="opacity:1" fill="#f5e1cb" d="M 128.5,111.5 C 115.189,119.799 101.856,128.132 88.5,136.5C 85.062,133.607 81.062,132.773 76.5,134C 70.727,137.936 65.3936,142.436 60.5,147.5C 54.1767,120.868 51.6767,93.8681 53,66.5C 56.7423,61.7094 61.5756,59.8761 67.5,61C 72.2234,62.1956 76.5568,64.1956 80.5,67C 94.8046,80.304 108.805,93.9706 122.5,108C 124.388,109.394 126.388,110.56 128.5,111.5 Z"/></g>
    <g><path style="opacity:1" fill="#f5e1cb" d="M 422.5,136.5 C 409.467,127.652 396.134,119.319 382.5,111.5C 384.612,110.56 386.612,109.394 388.5,108C 402.195,93.9706 416.195,80.304 430.5,67C 436.471,62.5641 443.138,60.5641 450.5,61C 453.562,62.0608 456.062,63.8941 458,66.5C 459.29,93.818 456.957,120.818 451,147.5C 445.791,142.622 440.291,138.122 434.5,134C 429.938,132.773 425.938,133.607 422.5,136.5 Z"/></g>
    <g><path style="opacity:1" fill="#f09454" d="M 382.5,111.5 C 396.134,119.319 409.467,127.652 422.5,136.5C 420.029,140.318 419.862,144.318 422,148.5C 432,157.167 441.333,166.5 450,176.5C 466.356,204.555 477.689,234.555 484,266.5C 489.635,292.214 491.968,318.214 491,344.5C 490.314,350.165 488.814,355.498 486.5,360.5C 457.088,315.632 415.755,297.132 362.5,305C 354.929,307.785 347.595,311.119 340.5,315C 329.265,322.417 317.932,329.584 306.5,336.5C 310.309,318.47 303.976,305.304 287.5,297C 270.296,289.951 252.629,288.617 234.5,293C 221.26,296.913 211.76,305.08 206,317.5C 203.903,324.246 204.069,330.913 206.5,337.5C 194.388,330.272 182.388,322.772 170.5,315C 131.416,295.826 94.0827,298.826 58.5,324C 44.8424,334.152 33.5091,346.319 24.5,360.5C 22.4025,355.458 20.9025,350.124 20,344.5C 18.8991,291.337 29.5658,240.67 52,192.5C 55.4141,186.003 59.0808,179.67 63,173.5C 71.3632,164.803 80.0299,156.469 89,148.5C 91.1381,144.318 90.9714,140.318 88.5,136.5C 101.856,128.132 115.189,119.799 128.5,111.5C 140.986,117.087 153.32,116.587 165.5,110C 179.294,103.866 190.294,94.5329 198.5,82C 236.488,74.7087 274.488,74.7087 312.5,82C 324.984,100.328 342.15,111.494 364,115.5C 370.45,115.288 376.616,113.955 382.5,111.5 Z"/></g>
    <g><path style="opacity:1" fill="#010000" d="M 87.5,168.5 C 137.61,175.907 187.61,184.074 237.5,193C 248.833,193.667 260.167,193.667 271.5,193C 318.558,185.324 365.558,177.324 412.5,169C 416.5,168.333 420.5,168.333 424.5,169C 427,170.167 428.833,172 430,174.5C 432.451,198.119 429.784,221.119 422,243.5C 408.597,276.966 383.763,292.966 347.5,291.5C 309.971,291.583 283.304,274.75 267.5,241C 259.812,240.169 252.145,240.335 244.5,241.5C 231.264,270.896 208.598,287.396 176.5,291C 128.551,296.455 98.3848,275.955 86,229.5C 82.1384,211.689 80.8051,193.689 82,175.5C 83.371,172.734 85.2043,170.401 87.5,168.5 Z"/></g>
    <g><path style="opacity:1" fill="#020201" d="M 306.5,336.5 C 298.969,354.7 285.636,366.033 266.5,370.5C 267.436,373.959 269.436,376.793 272.5,379C 292.258,394.106 313.592,396.606 336.5,386.5C 344.862,387.542 348.029,392.208 346,400.5C 345.215,402.286 344.049,403.786 342.5,405C 310.907,418.511 282.24,414.011 256.5,391.5C 229.767,413.842 200.434,418.009 168.5,404C 165.682,400.662 164.849,396.829 166,392.5C 168.353,387.574 172.186,385.74 177.5,387C 201.847,396.861 223.847,393.195 243.5,376C 245.174,374.494 246.174,372.661 246.5,370.5C 227.14,366.807 213.806,355.807 206.5,337.5C 204.069,330.913 203.903,324.246 206,317.5C 211.76,305.08 221.26,296.913 234.5,293C 252.629,288.617 270.296,289.951 287.5,297C 303.976,305.304 310.309,318.47 306.5,336.5 Z"/></g>
    <g><path style="opacity:1" fill="#f6e2cc" d="M 206.5,337.5 C 213.806,355.807 227.14,366.807 246.5,370.5C 246.174,372.661 245.174,374.494 243.5,376C 223.847,393.195 201.847,396.861 177.5,387C 172.186,385.74 168.353,387.574 166,392.5C 164.849,396.829 165.682,400.662 168.5,404C 200.434,418.009 229.767,413.842 256.5,391.5C 282.24,414.011 310.907,418.511 342.5,405C 344.049,403.786 345.215,402.286 346,400.5C 348.029,392.208 344.862,387.542 336.5,386.5C 313.592,396.606 292.258,394.106 272.5,379C 269.436,376.793 267.436,373.959 266.5,370.5C 285.636,366.033 298.969,354.7 306.5,336.5C 317.932,329.584 329.265,322.417 340.5,315C 347.595,311.119 354.929,307.785 362.5,305C 415.755,297.132 457.088,315.632 486.5,360.5C 482.804,370.893 477.804,380.56 471.5,389.5C 407.177,439.831 333.843,464.498 251.5,463.5C 173.242,463.304 103.242,439.638 41.5,392.5C 34.2782,382.726 28.6115,372.06 24.5,360.5C 33.5091,346.319 44.8424,334.152 58.5,324C 94.0827,298.826 131.416,295.826 170.5,315C 182.388,322.772 194.388,330.272 206.5,337.5 Z"/></g>
    <g><path style="opacity:1" fill="#f0c39d" d="M 471.5,389.5 C 439.213,433.84 396.546,463.674 343.5,479C 285.59,495.241 227.59,495.574 169.5,480C 117.1,464.717 74.433,435.55 41.5,392.5C 103.242,439.638 173.242,463.304 251.5,463.5C 333.843,464.498 407.177,439.831 471.5,389.5 Z"/></g>
</svg>
