<svg xmlns="http://www.w3.org/2000/svg" xmlns:xlink="http://www.w3.org/1999/xlink" fill="none" version="1.1" width="25" height="24.999963760375977" viewBox="0 0 25 24.999963760375977"><g><path d="M15.625,0C18.0413,0,20,1.95875,20,4.375C20,5.04649,19.8488,5.68267,19.5784,6.25129L23.75,6.24999C24.4404,6.24999,25,6.80963,25,7.49999L25,12.5C25,13.1903,24.4404,13.75,23.75,13.75L22.5,13.75L22.5,23.75C22.5,24.4403,21.9404,25,21.25,25L3.75,25C3.05965,25,2.5,24.4403,2.5,23.75L2.5,13.75L1.25,13.75C0.55965,13.75,0,13.1903,0,12.5L0,7.49999C0,6.80963,0.55965,6.24999,1.25,6.24999L5.42163,6.25129C5.15128,5.68267,5,5.04649,5,4.375C5,1.95875,6.95876,0,9.37499,0C10.6,0,11.7074,0.50345,12.5015,1.31472C13.2926,0.50345,14.4,0,15.625,0ZM20,13.75L5,13.75L5,22.5L20,22.5L20,13.75ZM22.5,8.74999L2.5,8.74999L2.5,11.25L22.5,11.25L22.5,8.74999ZM9.37499,2.5C8.33947,2.5,7.49999,3.33946,7.49999,4.375C7.49999,5.34961,8.2436,6.15056,9.19442,6.24141L9.37499,6.24999L11.25,6.24999L11.25,4.375C11.25,3.40037,10.5064,2.59943,9.55557,2.50857L9.37499,2.5ZM15.625,2.5L15.4444,2.50857C14.553,2.59376,13.8438,3.30303,13.7585,4.19442L13.75,4.375L13.75,6.24999L15.625,6.24999L15.8055,6.24141C16.7564,6.15056,17.5,5.34961,17.5,4.375C17.5,3.40037,16.7564,2.59943,15.8055,2.50857L15.625,2.5Z" fill="#000000" fill-opacity="1" style="mix-blend-mode:passthrough"/></g></svg>