<svg xmlns="http://www.w3.org/2000/svg" xmlns:xlink="http://www.w3.org/1999/xlink" fill="none" version="1.1" width="25" height="23.856426239013672" viewBox="0 0 25 23.856426239013672"><g><path d="M8.29123,10.4942C7.38558,10.4942,6.66858,9.77682,6.66858,8.87064C6.66858,7.9645,7.38558,7.24713,8.29123,7.24713C9.1969,7.24713,9.91388,7.9645,9.91388,8.87064C9.91388,9.77682,9.1969,10.4942,8.29123,10.4942ZM16.7087,10.4942C15.803,10.4942,15.0861,9.77682,15.0861,8.87064C15.0861,7.9645,15.803,7.24713,16.7087,7.24713C17.6144,7.24713,18.3314,7.9645,18.3314,8.87064C18.3314,9.77682,17.6144,10.4942,16.7087,10.4942ZM5.9625,20.2214L6.86593,19.6704C7.88829,19.0469,9.09896,18.8069,10.2818,18.9932C10.5489,19.0353,10.7684,19.0676,10.9379,19.09C11.4508,19.1576,11.9725,19.192,12.5,19.192C18.0817,19.192,22.4747,15.3758,22.4747,10.8586C22.4747,6.34141,18.0817,2.52525,12.5,2.52525C6.91827,2.52525,2.52525,6.34141,2.52525,10.8586C2.52525,12.5828,3.15612,14.2334,4.33293,15.6325C4.3939,15.705,4.48507,15.8052,4.60362,15.9287C5.60782,16.9746,6.11416,18.4014,5.99376,19.8463L5.9625,20.2214ZM5.167,23.6646C4.93598,23.8089,4.66445,23.8747,4.39295,23.8521C3.69804,23.7942,3.18164,23.1839,3.23954,22.4889L3.47723,19.6365C3.53743,18.9141,3.28427,18.2007,2.78217,17.6778C2.62792,17.5171,2.50066,17.3772,2.40039,17.258C0.890947,15.4634,0,13.2514,0,10.8586C0,4.86155,5.59644,0,12.5,0C19.4035,0,25,4.86155,25,10.8586C25,16.8556,19.4035,21.7172,12.5,21.7172C11.8567,21.7172,11.2248,21.6749,10.6076,21.5935C10.4148,21.5681,10.1751,21.5329,9.88885,21.4877C9.29738,21.3945,8.69205,21.5146,8.18088,21.8263L5.167,23.6646Z" fill="#000000" fill-opacity="1" style="mix-blend-mode:passthrough"/></g></svg>