<svg xmlns="http://www.w3.org/2000/svg" xmlns:xlink="http://www.w3.org/1999/xlink" fill="none" version="1.1" width="25" height="27.77777671813965" viewBox="0 0 25 27.77777671813965"><g><path d="M23.6111,27.7778L1.38889,27.7778C0.621833,27.7778,0,27.156,0,26.3889L0,1.38889C0,0.621833,0.621833,0,1.38889,0L23.6111,0C24.3782,0,25,0.621833,25,1.38889L25,26.3889C25,27.156,24.3782,27.7778,23.6111,27.7778ZM22.2222,25L22.2222,2.77778L2.77778,2.77778L2.77778,25L22.2222,25ZM6.94444,9.72222L18.0556,9.72222L18.0556,12.5L6.94444,12.5L6.94444,9.72222ZM6.94444,15.2778L18.0556,15.2778L18.0556,18.0556L6.94444,18.0556L6.94444,15.2778Z" fill="#000000" fill-opacity="1" style="mix-blend-mode:passthrough"/></g></svg>