<?xml version="1.0" encoding="UTF-8"?>
<!DOCTYPE svg PUBLIC "-//W3C//DTD SVG 1.1//EN" "http://www.w3.org/Graphics/SVG/1.1/DTD/svg11.dtd">
<svg viewBox="0 0 599 195" xmlns="http://www.w3.org/2000/svg" version="1.1" width="599px" height="195px" style="shape-rendering:geometricPrecision; text-rendering:geometricPrecision; image-rendering:optimizeQuality; fill-rule:evenodd; clip-rule:evenodd" xmlns:xlink="http://www.w3.org/1999/xlink">
<g><path style="opacity:1" fill="#151212" d="M 38.5,9.5 C 56.2623,12.1319 71.7623,19.4653 85,31.5C 98.3333,28.8333 111.667,28.8333 125,31.5C 137.608,20.1962 152.274,12.8628 169,9.5C 176.108,10.9417 180.108,15.2751 181,22.5C 182.364,37.3972 181.197,52.0639 177.5,66.5C 188.78,87.0652 193.613,109.065 192,132.5C 181.314,157.514 162.814,173.681 136.5,181C 103.693,189.856 73.0263,185.19 44.5,167C 32.1664,158.155 23.3331,146.655 18,132.5C 16.3845,109.077 21.2179,87.0768 32.5,66.5C 28.8026,52.0588 27.6359,37.3921 29,22.5C 29.2925,15.8646 32.4592,11.5313 38.5,9.5 Z"/></g>
<g><path style="opacity:1" fill="#da8f5b" d="M 151.5,36.5 C 151.5,34.8333 151.5,33.1667 151.5,31.5C 152.833,31.5 154.167,31.5 155.5,31.5C 155.64,29.8762 154.973,28.7096 153.5,28C 157.428,26.1984 161.428,24.6984 165.5,23.5C 165.5,22.5 165.5,21.5 165.5,20.5C 159.407,21.5239 153.407,22.8572 147.5,24.5C 153.949,20.6791 160.949,18.0125 168.5,16.5C 172.99,17.2501 174.657,19.9168 173.5,24.5C 168.818,24.338 164.485,25.5046 160.5,28C 157.631,31.0379 154.631,33.8712 151.5,36.5 Z"/></g>
<g><path style="opacity:1" fill="#e89359" d="M 39.5,16.5 C 54.83,18.9988 68.1634,25.4988 79.5,36C 75.1821,40.8301 69.8488,42.8301 63.5,42C 59.5,36.6667 54.8333,32 49.5,28C 45.4604,25.7401 41.1271,24.5734 36.5,24.5C 35.8285,21.014 36.8285,18.3473 39.5,16.5 Z"/></g>
<g><path style="opacity:1" fill="#ca8d61" d="M 147.5,24.5 C 143.758,28.5722 139.425,31.9055 134.5,34.5C 133.348,36.3971 133.681,38.0638 135.5,39.5C 133.456,38.9688 131.789,37.8022 130.5,36C 135.246,30.7451 140.913,26.9118 147.5,24.5 Z"/></g>
<g><path style="opacity:1" fill="#f09556" d="M 151.5,36.5 C 147.135,43.1154 141.802,44.1154 135.5,39.5C 133.681,38.0638 133.348,36.3971 134.5,34.5C 139.425,31.9055 143.758,28.5722 147.5,24.5C 153.407,22.8572 159.407,21.5239 165.5,20.5C 165.5,21.5 165.5,22.5 165.5,23.5C 161.428,24.6984 157.428,26.1984 153.5,28C 154.973,28.7096 155.64,29.8762 155.5,31.5C 154.167,31.5 152.833,31.5 151.5,31.5C 151.5,33.1667 151.5,34.8333 151.5,36.5 Z"/></g>
<g><path style="opacity:1" fill="#da9463" d="M 132.5,46.5 C 131.178,46.33 130.011,46.6634 129,47.5C 128.751,46.376 128.251,45.376 127.5,44.5C 125.421,43.0882 123.421,41.5882 121.5,40C 110.559,38.4274 99.5591,38.0941 88.5,39C 86.7866,40.3782 85.4533,42.0448 84.5,44C 80.787,46.1997 76.787,47.6997 72.5,48.5C 77.5741,45.9571 81.9075,42.4571 85.5,38C 98.9235,35.7264 112.257,36.0597 125.5,39C 127.431,41.9457 129.764,44.4457 132.5,46.5 Z"/></g>
<g><path style="opacity:1" fill="#f3dfcb" d="M 162.5,56.5 C 157.07,54.466 152.404,51.466 148.5,47.5C 154.242,43.2653 159.575,38.432 164.5,33C 172.637,28.6162 175.97,31.1162 174.5,40.5C 174.366,47.3026 173.366,53.9693 171.5,60.5C 169.445,58.4453 167.112,56.7787 164.5,55.5C 163.817,55.8627 163.15,56.1961 162.5,56.5 Z"/></g>
<g><path style="opacity:0.925" fill="#7b7b7b" d="M 426.5,49.5 C 426.5,48.1667 426.5,46.8333 426.5,45.5C 421.847,44.9992 417.514,45.6658 413.5,47.5C 413.5,46.5 413.5,45.5 413.5,44.5C 418.167,44.5 422.833,44.5 427.5,44.5C 427.784,46.4147 427.451,48.0813 426.5,49.5 Z"/></g>
<g><path style="opacity:1" fill="#373737" d="M 524.5,56.5 C 523.957,56.56 523.624,56.8933 523.5,57.5C 538.819,58.4994 554.152,58.8327 569.5,58.5C 569.5,80.1667 569.5,101.833 569.5,123.5C 569.721,132.866 569.387,142.199 568.5,151.5C 553.152,150.677 537.819,149.677 522.5,148.5C 523.032,142.848 523.365,137.181 523.5,131.5C 531.532,132.355 539.532,133.355 547.5,134.5C 549.948,135.473 552.615,135.806 555.5,135.5C 555.5,127.833 555.5,120.167 555.5,112.5C 555.5,101.5 555.5,90.5 555.5,79.5C 555.5,77.5 555.5,75.5 555.5,73.5C 545.167,73.5 534.833,73.5 524.5,73.5C 521.482,73.3354 518.482,73.502 515.5,74C 512.036,79.2954 508.036,84.1287 503.5,88.5C 500.194,85.2333 497.361,81.5667 495,77.5C 494.333,76.5 494.333,75.5 495,74.5C 503.65,65.8689 509.15,55.5356 511.5,43.5C 516.863,43.9494 522.196,44.6161 527.5,45.5C 526.965,49.309 525.965,52.9756 524.5,56.5 Z"/></g>
<g><path style="opacity:1" fill="#f1ddc9" d="M 61.5,47.5 C 60.1727,49.1816 58.5061,50.5149 56.5,51.5C 53.3661,52.9009 50.3661,54.5675 47.5,56.5C 46.8501,56.1961 46.1835,55.8627 45.5,55.5C 42.9906,56.9213 40.6572,58.5879 38.5,60.5C 35.9214,51.3209 35.0881,41.9876 36,32.5C 39.1416,30.0522 42.3083,30.2189 45.5,33C 50.4251,38.432 55.7584,43.2653 61.5,47.5 Z"/></g>
<g><path style="opacity:1" fill="#f29555" d="M 132.5,46.5 C 135.821,47.4955 139.154,48.4955 142.5,49.5C 144.53,48.8283 146.53,48.1616 148.5,47.5C 152.404,51.466 157.07,54.466 162.5,56.5C 161.588,57.7382 161.421,59.0715 162,60.5C 166.825,64.4785 170.658,69.1451 173.5,74.5C 173.795,78.2279 174.461,81.8946 175.5,85.5C 177.461,89.3 179.128,93.3 180.5,97.5C 179.417,99.8749 179.417,102.208 180.5,104.5C 181.086,104.291 181.586,103.957 182,103.5C 182.355,110.345 182.855,117.178 183.5,124C 183.167,125.5 182.833,127 182.5,128.5C 181.08,126.78 179.747,124.946 178.5,123C 177.255,122.209 175.922,121.709 174.5,121.5C 171.24,120.226 168.24,118.56 165.5,116.5C 164.756,114.547 163.256,113.547 161,113.5C 156.842,112.927 152.676,112.427 148.5,112C 152.279,108.221 156.113,104.387 160,100.5C 160.49,99.2068 160.657,97.8734 160.5,96.5C 162.074,96.0629 163.241,95.0629 164,93.5C 166.257,85.6412 166.924,77.6412 166,69.5C 164.82,68.3159 163.32,67.6493 161.5,67.5C 159.955,67.5108 158.622,67.8442 157.5,68.5C 147.5,69.8334 137.5,71.1667 127.5,72.5C 115.857,73.6645 104.19,74.1645 92.5,74C 85.6687,72.2135 78.6687,70.8802 71.5,70C 73.9005,69.8142 76.2338,69.3142 78.5,68.5C 74.0275,67.4939 69.5275,67.4939 65,68.5C 59.0261,66.634 52.8594,65.3007 46.5,64.5C 47.4209,62.244 49.0876,61.244 51.5,61.5C 51.2148,59.712 51.5481,58.0453 52.5,56.5C 54.5522,55.3892 55.8855,53.7225 56.5,51.5C 58.5061,50.5149 60.1727,49.1816 61.5,47.5C 65.0204,49.5383 68.6871,49.8716 72.5,48.5C 76.787,47.6997 80.787,46.1997 84.5,44C 85.4533,42.0448 86.7866,40.3782 88.5,39C 99.5591,38.0941 110.559,38.4274 121.5,40C 123.421,41.5882 125.421,43.0882 127.5,44.5C 128.251,45.376 128.751,46.376 129,47.5C 130.011,46.6634 131.178,46.33 132.5,46.5 Z"/></g>
<g><path style="opacity:1" fill="#3b3b3b" d="M 426.5,49.5 C 426.369,50.3764 426.702,51.0431 427.5,51.5C 430.091,49.6201 432.591,47.6201 435,45.5C 438.536,49.4147 441.703,53.5814 444.5,58C 443.132,59.8734 441.466,61.54 439.5,63C 442.482,63.498 445.482,63.6646 448.5,63.5C 449.18,68.2131 449.18,72.8798 448.5,77.5C 444.571,78.4328 440.571,78.7662 436.5,78.5C 433.167,78.5 429.833,78.5 426.5,78.5C 426.205,80.7354 426.539,82.7354 427.5,84.5C 428.155,98.955 431.655,112.622 438,125.5C 438.185,121.344 439.018,117.344 440.5,113.5C 443.759,116.048 446.926,118.714 450,121.5C 449.22,131.19 447.886,140.857 446,150.5C 445.586,150.957 445.086,151.291 444.5,151.5C 434.697,145.864 427.53,137.864 423,127.5C 417.407,113.367 414.573,98.7007 414.5,83.5C 414.5,82.1667 414.5,80.8333 414.5,79.5C 403.833,79.5 393.167,79.5 382.5,79.5C 379.167,79.5 375.833,79.5 372.5,79.5C 372.772,75.0983 372.439,70.7649 371.5,66.5C 385.484,66.8292 399.484,66.4959 413.5,65.5C 413.5,59.5 413.5,53.5 413.5,47.5C 417.514,45.6658 421.847,44.9992 426.5,45.5C 426.5,46.8333 426.5,48.1667 426.5,49.5 Z M 426.5,52.5 C 428.547,56.2383 430.88,59.905 433.5,63.5C 431.257,64.4742 428.924,64.8076 426.5,64.5C 426.5,60.5 426.5,56.5 426.5,52.5 Z"/></g>
<g><path style="opacity:1" fill="#3b3b3b" d="M 484.5,122.5 C 484.82,119.102 484.487,115.768 483.5,112.5C 482.893,112.624 482.56,112.957 482.5,113.5C 478.036,117.774 472.87,121.107 467,123.5C 464.304,120.462 461.97,117.129 460,113.5C 459.316,112.216 459.483,111.049 460.5,110C 468.36,106.574 475.36,101.907 481.5,96C 480.912,92.2974 479.745,88.7974 478,85.5C 474.282,88.4048 470.115,89.9048 465.5,90C 463.045,86.9223 460.711,83.7556 458.5,80.5C 463.463,77.0125 468.463,73.5125 473.5,70C 470.155,62.9724 465.822,56.639 460.5,51C 464.667,48.5521 469,46.3854 473.5,44.5C 477.93,48.4355 481.43,53.1021 484,58.5C 487.755,53.9974 490.755,48.9974 493,43.5C 497.519,45.1083 501.685,47.275 505.5,50C 503.791,54.7122 501.625,59.2122 499,63.5C 495.767,67.0626 492.933,70.8959 490.5,75C 497.7,98.6331 500.7,122.8 499.5,147.5C 490.858,146.701 482.191,146.368 473.5,146.5C 473.094,142.136 472.428,137.803 471.5,133.5C 471.833,132.5 472.167,131.5 472.5,130.5C 476.429,131.433 480.429,131.766 484.5,131.5C 484.5,128.5 484.5,125.5 484.5,122.5 Z"/></g>
<g><path style="opacity:0.229" fill="#bcbcbc" d="M 287.5,48.5 C 263.006,49.4977 238.339,49.831 213.5,49.5C 213.5,54.5 213.5,59.5 213.5,64.5C 212.512,59.3595 212.179,54.0262 212.5,48.5C 237.5,48.5 262.5,48.5 287.5,48.5 Z"/></g>
<g><path style="opacity:1" fill="#363636" d="M 298.5,73.5 C 304.833,73.5 311.167,73.5 317.5,73.5C 317.194,76.3854 317.527,79.0521 318.5,81.5C 318.5,86.8333 318.5,92.1667 318.5,97.5C 318.5,114.167 318.5,130.833 318.5,147.5C 316.901,147.232 315.568,147.566 314.5,148.5C 282.498,149.816 250.498,149.816 218.5,148.5C 216.64,143.807 215.974,138.807 216.5,133.5C 216.5,130.167 216.5,126.833 216.5,123.5C 217.496,107.342 217.83,91.0085 217.5,74.5C 228.014,74.8276 238.347,74.4942 248.5,73.5C 249.323,70.5394 249.99,67.5394 250.5,64.5C 238.167,64.5 225.833,64.5 213.5,64.5C 213.5,59.5 213.5,54.5 213.5,49.5C 238.339,49.831 263.006,49.4977 287.5,48.5C 298.843,48.4202 310.176,48.0868 321.5,47.5C 321.195,52.7616 321.529,57.9283 322.5,63C 321.833,63.3333 321.167,63.6667 320.5,64C 302.926,64.1739 285.426,64.6739 268,65.5C 267.548,68.1494 266.714,70.6494 265.5,73C 276.495,73.4998 287.495,73.6665 298.5,73.5 Z M 232.5,87.5 C 236.5,87.5 240.5,87.5 244.5,87.5C 244.5,103.167 244.5,118.833 244.5,134.5C 240.167,134.5 235.833,134.5 231.5,134.5C 232.402,118.855 232.735,103.188 232.5,87.5 Z M 259.5,87.5 C 264.5,87.5 269.5,87.5 274.5,87.5C 274.5,89.5 274.5,91.5 274.5,93.5C 269.482,93.6133 264.482,93.9466 259.5,94.5C 259.5,92.1667 259.5,89.8333 259.5,87.5 Z M 301.5,87.5 C 301.5,103.167 301.5,118.833 301.5,134.5C 297.5,134.5 293.5,134.5 289.5,134.5C 289.5,118.833 289.5,103.167 289.5,87.5C 293.5,87.5 297.5,87.5 301.5,87.5 Z M 259.5,107.5 C 264.5,107.5 269.5,107.5 274.5,107.5C 274.5,109.833 274.5,112.167 274.5,114.5C 270.167,114.5 265.833,114.5 261.5,114.5C 259.852,112.544 259.185,110.211 259.5,107.5 Z M 274.5,128.5 C 274.5,130.5 274.5,132.5 274.5,134.5C 269.5,134.5 264.5,134.5 259.5,134.5C 259.5,132.5 259.5,130.5 259.5,128.5C 264.5,128.5 269.5,128.5 274.5,128.5 Z"/></g>
<g><path style="opacity:1" fill="#414141" d="M 348.5,45.5 C 355.255,48.3766 361.922,51.5433 368.5,55C 366.28,59.9509 363.447,64.4509 360,68.5C 352.703,66.0187 346.37,62.0187 341,56.5C 340.333,55.5 340.333,54.5 341,53.5C 343.705,50.9638 346.205,48.2971 348.5,45.5 Z"/></g>
<g><path style="opacity:1" fill="#040101" d="M 127.5,72.5 C 137.5,71.1667 147.5,69.8334 157.5,68.5C 159.792,68.2436 161.959,68.5769 164,69.5C 165.355,78.8872 164.188,87.8872 160.5,96.5C 155.111,105.321 147.111,109.655 136.5,109.5C 123.976,109.579 114.976,104.079 109.5,93C 106.446,92.1786 103.446,92.3452 100.5,93.5C 99.3698,94.6223 98.7031,95.9557 98.5,97.5C 89.7401,108.161 78.4067,111.995 64.5,109C 60.8426,108.163 57.8426,106.33 55.5,103.5C 55.1667,103.5 54.8333,103.5 54.5,103.5C 46.7675,92.5387 44.4342,80.7053 47.5,68C 66.2529,70.9857 85.0863,73.819 104,76.5C 112.055,75.7413 119.888,74.408 127.5,72.5 Z"/></g>
<g><path style="opacity:1" fill="#de925e" d="M 56.5,51.5 C 55.8855,53.7225 54.5522,55.3892 52.5,56.5C 51.5481,58.0453 51.2148,59.712 51.5,61.5C 49.0876,61.244 47.4209,62.244 46.5,64.5C 52.8594,65.3007 59.0261,66.634 65,68.5C 69.5275,67.4939 74.0275,67.4939 78.5,68.5C 76.2338,69.3142 73.9005,69.8142 71.5,70C 78.6687,70.8802 85.6687,72.2135 92.5,74C 104.19,74.1645 115.857,73.6645 127.5,72.5C 119.888,74.408 112.055,75.7413 104,76.5C 85.0863,73.819 66.2529,70.9857 47.5,68C 44.4342,80.7053 46.7675,92.5387 54.5,103.5C 50.54,102.333 48.2067,99.6664 47.5,95.5C 45.0285,87.1066 43.8618,78.4399 44,69.5C 43.7266,71.1012 43.2266,72.6012 42.5,74C 42.9437,75.5333 43.277,77.0333 43.5,78.5C 43.1667,78.8333 42.8333,79.1667 42.5,79.5C 41.1585,77.9951 39.4918,77.3285 37.5,77.5C 37.6602,79.1992 37.4935,80.8659 37,82.5C 36.4646,80.7295 35.6313,80.3961 34.5,81.5C 33.0304,84.3081 32.1971,87.3081 32,90.5C 31.2635,92.596 30.0968,94.2627 28.5,95.5C 30.8358,81.4935 37.3358,69.8268 48,60.5C 48.5791,59.0715 48.4124,57.7382 47.5,56.5C 50.3661,54.5675 53.3661,52.9009 56.5,51.5 Z"/></g>
<g><path style="opacity:0.518" fill="#b1b1b1" d="M 298.5,73.5 C 304.979,72.5093 311.646,72.176 318.5,72.5C 318.5,75.5 318.5,78.5 318.5,81.5C 317.527,79.0521 317.194,76.3854 317.5,73.5C 311.167,73.5 304.833,73.5 298.5,73.5 Z"/></g>
<g><path style="opacity:0.648" fill="#8c8c8c" d="M 248.5,73.5 C 238.347,74.4942 228.014,74.8276 217.5,74.5C 217.83,91.0085 217.496,107.342 216.5,123.5C 216.5,106.833 216.5,90.1667 216.5,73.5C 227.167,73.5 237.833,73.5 248.5,73.5 Z"/></g>
<g><path style="opacity:0.259" fill="#d5d5d5" d="M 524.5,73.5 C 534.833,73.5 545.167,73.5 555.5,73.5C 555.5,75.5 555.5,77.5 555.5,79.5C 554.549,78.0813 554.216,76.4147 554.5,74.5C 544.319,74.8274 534.319,74.494 524.5,73.5 Z"/></g>
<g><path style="opacity:1" fill="#393939" d="M 370.5,122.5 C 370.5,126.167 370.5,129.833 370.5,133.5C 371.791,133.737 372.791,133.404 373.5,132.5C 377.477,131.741 381.477,131.075 385.5,130.5C 385.5,122.833 385.5,115.167 385.5,107.5C 382.316,105.586 378.649,104.92 374.5,105.5C 373.503,105.53 372.836,105.03 372.5,104C 373.394,100.224 373.728,96.3905 373.5,92.5C 386.565,92.831 399.565,92.1644 412.5,90.5C 412.2,95.0986 412.533,99.5986 413.5,104C 411.063,105.375 408.397,105.875 405.5,105.5C 402.833,105.5 400.167,105.5 397.5,105.5C 397.185,109.371 397.518,113.038 398.5,116.5C 398.176,120.555 398.509,124.555 399.5,128.5C 404.408,127.023 409.408,126.023 414.5,125.5C 414.774,130.263 414.441,134.93 413.5,139.5C 399.713,143.242 385.713,145.909 371.5,147.5C 371.037,144.518 370.704,141.518 370.5,138.5C 363.413,141.704 356.08,144.371 348.5,146.5C 347.513,141.695 347.179,136.695 347.5,131.5C 347.5,127.5 347.5,123.5 347.5,119.5C 348.494,110.348 348.827,101.015 348.5,91.5C 344.5,91.5 340.5,91.5 336.5,91.5C 335.414,91.38 334.747,90.7133 334.5,89.5C 335.354,85.1877 336.021,80.8544 336.5,76.5C 345.415,77.4874 354.248,77.8208 363,77.5C 362.811,91.4837 362.311,105.484 361.5,119.5C 361.833,121.833 362.167,124.167 362.5,126.5C 364.359,124.808 366.359,123.308 368.5,122C 369.437,121.308 370.103,121.475 370.5,122.5 Z"/></g>
<g><path style="opacity:0.627" fill="#a1a1a1" d="M 436.5,78.5 C 433.713,79.4767 430.713,79.81 427.5,79.5C 427.5,81.1667 427.5,82.8333 427.5,84.5C 426.539,82.7354 426.205,80.7354 426.5,78.5C 429.833,78.5 433.167,78.5 436.5,78.5 Z"/></g>
<g><path style="opacity:0.272" fill="#cdcdcd" d="M 382.5,79.5 C 393.167,79.5 403.833,79.5 414.5,79.5C 414.5,80.8333 414.5,82.1667 414.5,83.5C 413.596,82.791 413.263,81.791 413.5,80.5C 402.986,80.8276 392.653,80.4942 382.5,79.5 Z"/></g>
<g><path style="opacity:0.717" fill="#a7a7a7" d="M 524.5,56.5 C 539.658,57.4962 554.991,57.8295 570.5,57.5C 570.831,79.673 570.497,101.673 569.5,123.5C 569.5,101.833 569.5,80.1667 569.5,58.5C 554.152,58.8327 538.819,58.4994 523.5,57.5C 523.624,56.8933 523.957,56.56 524.5,56.5 Z"/></g>
<g><path style="opacity:1" fill="#d08b5c" d="M 157.5,68.5 C 158.622,67.8442 159.955,67.5108 161.5,67.5C 163.32,67.6493 164.82,68.3159 166,69.5C 166.924,77.6412 166.257,85.6412 164,93.5C 163.241,95.0629 162.074,96.0629 160.5,96.5C 164.188,87.8872 165.355,78.8872 164,69.5C 161.959,68.5769 159.792,68.2436 157.5,68.5 Z"/></g>
<g><path style="opacity:1" fill="#393939" d="M 536.5,84.5 C 540.106,84.2108 543.606,84.5442 547,85.5C 547.667,97.8333 547.667,110.167 547,122.5C 543.924,123.288 540.758,123.788 537.5,124C 527.506,124.5 517.506,124.666 507.5,124.5C 507.5,111.5 507.5,98.5 507.5,85.5C 517.348,85.8271 527.014,85.4938 536.5,84.5 Z M 529.5,98.5 C 530.5,98.5 531.5,98.5 532.5,98.5C 532.5,102.5 532.5,106.5 532.5,110.5C 531.209,110.263 530.209,110.596 529.5,111.5C 526.751,111.726 524.084,111.393 521.5,110.5C 520.509,106.555 520.176,102.555 520.5,98.5C 523.5,98.5 526.5,98.5 529.5,98.5 Z"/></g>
<g><path style="opacity:1" fill="#f19556" d="M 54.5,103.5 C 54.8333,103.5 55.1667,103.5 55.5,103.5C 56.2672,106.735 58.2672,108.901 61.5,110C 71.9361,110.901 82.2694,110.401 92.5,108.5C 92.5,109.833 92.5,111.167 92.5,112.5C 88.6447,115.549 86.9781,119.549 87.5,124.5C 82.3687,121.862 77.3687,119.029 72.5,116C 55.9331,110.8 41.9331,114.633 30.5,127.5C 29.4168,127.539 28.4168,127.873 27.5,128.5C 27.1667,125.167 26.8333,121.833 26.5,118.5C 26.9069,110.803 27.5736,103.136 28.5,95.5C 30.0968,94.2627 31.2635,92.596 32,90.5C 32.1971,87.3081 33.0304,84.3081 34.5,81.5C 35.6313,80.3961 36.4646,80.7295 37,82.5C 37.4935,80.8659 37.6602,79.1992 37.5,77.5C 39.4918,77.3285 41.1585,77.9951 42.5,79.5C 42.8333,79.1667 43.1667,78.8333 43.5,78.5C 43.277,77.0333 42.9437,75.5333 42.5,74C 43.2266,72.6012 43.7266,71.1012 44,69.5C 43.8618,78.4399 45.0285,87.1066 47.5,95.5C 48.2067,99.6664 50.54,102.333 54.5,103.5 Z"/></g>
<g><path style="opacity:0.061" fill="#cccccc" d="M 529.5,98.5 C 530.568,97.5655 531.901,97.2322 533.5,97.5C 533.5,102.167 533.5,106.833 533.5,111.5C 532.167,111.5 530.833,111.5 529.5,111.5C 530.209,110.596 531.209,110.263 532.5,110.5C 532.5,106.5 532.5,102.5 532.5,98.5C 531.5,98.5 530.5,98.5 529.5,98.5 Z"/></g>
<g><path style="opacity:0.41" fill="#a7a7a7" d="M 336.5,91.5 C 340.5,91.5 344.5,91.5 348.5,91.5C 348.827,101.015 348.494,110.348 347.5,119.5C 347.5,110.5 347.5,101.5 347.5,92.5C 343.629,92.815 339.962,92.4816 336.5,91.5 Z"/></g>
<g><path style="opacity:0.58" fill="#b4b4b4" d="M 374.5,105.5 C 378.649,104.92 382.316,105.586 385.5,107.5C 381.727,106.897 378.061,106.23 374.5,105.5 Z"/></g>
<g><path style="opacity:1" fill="#dd915d" d="M 160.5,96.5 C 160.657,97.8734 160.49,99.2068 160,100.5C 156.113,104.387 152.279,108.221 148.5,112C 152.676,112.427 156.842,112.927 161,113.5C 163.256,113.547 164.756,114.547 165.5,116.5C 157.013,113.49 148.347,112.823 139.5,114.5C 138.571,113.685 137.571,112.852 136.5,112C 130.582,111.349 124.915,109.849 119.5,107.5C 115.172,109.849 115.505,110.849 120.5,110.5C 120.833,112.5 121.167,114.5 121.5,116.5C 114.862,109.881 106.862,107.715 97.5,110C 95.9221,111.094 94.2554,111.928 92.5,112.5C 92.5,111.167 92.5,109.833 92.5,108.5C 82.2694,110.401 71.9361,110.901 61.5,110C 58.2672,108.901 56.2672,106.735 55.5,103.5C 57.8426,106.33 60.8426,108.163 64.5,109C 78.4067,111.995 89.7401,108.161 98.5,97.5C 98.7031,95.9557 99.3698,94.6223 100.5,93.5C 103.446,92.3452 106.446,92.1786 109.5,93C 114.976,104.079 123.976,109.579 136.5,109.5C 147.111,109.655 155.111,105.321 160.5,96.5 Z"/></g>
<g><path style="opacity:1" fill="#f39555" d="M 98.5,97.5 C 99.8118,96.8549 100.812,95.8549 101.5,94.5C 103.743,93.5258 106.076,93.1924 108.5,93.5C 108.5,94.8333 108.5,96.1667 108.5,97.5C 107.022,97.238 105.689,97.5713 104.5,98.5C 105.025,99.1924 105.692,99.6924 106.5,100C 106.167,100.333 105.833,100.667 105.5,101C 106.915,100.745 108.415,100.245 110,99.5C 119.261,105.997 117.928,108.997 106,108.5C 103.5,108.333 101,108.167 98.5,108C 99.2567,106.488 100.257,105.154 101.5,104C 99.8876,103.28 98.3876,103.446 97,104.5C 97.1404,102.149 97.6404,99.8155 98.5,97.5 Z"/></g>
<g><path style="opacity:0.767" fill="#949494" d="M 405.5,105.5 C 403.393,106.468 401.059,106.802 398.5,106.5C 398.5,109.833 398.5,113.167 398.5,116.5C 398.5,113.167 398.5,109.833 398.5,106.5C 401.059,106.802 403.393,106.468 405.5,105.5 Z"/></g>
<g><path style="opacity:0.482" fill="#aaaaaa" d="M 259.5,107.5 C 259.185,110.211 259.852,112.544 261.5,114.5C 260.5,114.5 259.5,114.5 258.5,114.5C 258.198,111.941 258.532,109.607 259.5,107.5 Z"/></g>
<g><path style="opacity:1" fill="#070403" d="M 121.5,116.5 C 122.388,119.054 122.721,121.721 122.5,124.5C 119.791,130.874 115.124,135.207 108.5,137.5C 116.405,144.68 125.405,146.347 135.5,142.5C 135.66,144.199 135.494,145.866 135,147.5C 124.223,152.288 114.223,150.955 105,143.5C 96.5779,150.455 87.0779,152.289 76.5,149C 73.8333,147 73.8333,145 76.5,143C 86.3645,146.094 95.0312,144.094 102.5,137C 95.8217,134.82 90.8217,130.653 87.5,124.5C 86.9781,119.549 88.6447,115.549 92.5,112.5C 94.2554,111.928 95.9221,111.094 97.5,110C 106.862,107.715 114.862,109.881 121.5,116.5 Z"/></g>
<g><path style="opacity:1" fill="#ef9558" d="M 139.5,114.5 C 133.856,117.798 128.189,121.131 122.5,124.5C 122.721,121.721 122.388,119.054 121.5,116.5C 121.167,114.5 120.833,112.5 120.5,110.5C 115.505,110.849 115.172,109.849 119.5,107.5C 124.915,109.849 130.582,111.349 136.5,112C 137.571,112.852 138.571,113.685 139.5,114.5 Z"/></g>
<g><path style="opacity:0.178" fill="#bababa" d="M 301.5,87.5 C 302.496,103.325 302.83,119.325 302.5,135.5C 297.968,135.818 293.634,135.485 289.5,134.5C 293.5,134.5 297.5,134.5 301.5,134.5C 301.5,118.833 301.5,103.167 301.5,87.5 Z"/></g>
<g><path style="opacity:0.216" fill="#b1b1b1" d="M 482.5,113.5 C 482.56,112.957 482.893,112.624 483.5,112.5C 484.487,115.768 484.82,119.102 484.5,122.5C 483.833,119.5 483.167,116.5 482.5,113.5 Z"/></g>
<g><path style="opacity:1" fill="#f6e1cb" d="M 87.5,124.5 C 90.8217,130.653 95.8217,134.82 102.5,137C 95.0312,144.094 86.3645,146.094 76.5,143C 73.8333,145 73.8333,147 76.5,149C 87.0779,152.289 96.5779,150.455 105,143.5C 114.223,150.955 124.223,152.288 135,147.5C 135.494,145.866 135.66,144.199 135.5,142.5C 125.405,146.347 116.405,144.68 108.5,137.5C 115.124,135.207 119.791,130.874 122.5,124.5C 128.189,121.131 133.856,117.798 139.5,114.5C 148.347,112.823 157.013,113.49 165.5,116.5C 168.24,118.56 171.24,120.226 174.5,121.5C 176.412,124.919 178.912,127.919 182,130.5C 182.791,131.745 183.291,133.078 183.5,134.5C 182.262,137.738 180.596,140.738 178.5,143.5C 177.167,143.5 175.833,143.5 174.5,143.5C 174.079,145.91 172.746,147.743 170.5,149C 139.841,168.265 106.841,173.265 71.5,164C 65.5,162 59.5,160 53.5,158C 46.9621,153.966 40.2954,150.133 33.5,146.5C 30.6503,142.801 28.317,138.801 26.5,134.5C 27.063,131.705 28.3963,129.372 30.5,127.5C 41.9331,114.633 55.9331,110.8 72.5,116C 77.3687,119.029 82.3687,121.862 87.5,124.5 Z"/></g>
<g><path style="opacity:0.612" fill="#a0a0a0" d="M 318.5,97.5 C 319.497,114.325 319.83,131.325 319.5,148.5C 317.833,148.5 316.167,148.5 314.5,148.5C 315.568,147.566 316.901,147.232 318.5,147.5C 318.5,130.833 318.5,114.167 318.5,97.5 Z"/></g>
<g><path style="opacity:1" fill="#dc9561" d="M 173.5,74.5 C 182.692,92.297 186.526,111.297 185,131.5C 184.768,132.737 184.268,133.737 183.5,134.5C 183.291,133.078 182.791,131.745 182,130.5C 178.912,127.919 176.412,124.919 174.5,121.5C 175.922,121.709 177.255,122.209 178.5,123C 179.747,124.946 181.08,126.78 182.5,128.5C 182.833,127 183.167,125.5 183.5,124C 182.855,117.178 182.355,110.345 182,103.5C 181.586,103.957 181.086,104.291 180.5,104.5C 179.417,102.208 179.417,99.8749 180.5,97.5C 179.128,93.3 177.461,89.3 175.5,85.5C 174.461,81.8946 173.795,78.2279 173.5,74.5 Z"/></g>
<g><path style="opacity:1" fill="#d18f61" d="M 28.5,95.5 C 27.5736,103.136 26.9069,110.803 26.5,118.5C 26.8333,121.833 27.1667,125.167 27.5,128.5C 28.4168,127.873 29.4168,127.539 30.5,127.5C 28.3963,129.372 27.063,131.705 26.5,134.5C 25.7321,133.737 25.2321,132.737 25,131.5C 23.7124,119.125 24.8791,107.125 28.5,95.5 Z"/></g>
<g><path style="opacity:0.481" fill="#b8b8b8" d="M 274.5,128.5 C 269.5,128.5 264.5,128.5 259.5,128.5C 259.5,130.5 259.5,132.5 259.5,134.5C 264.5,134.5 269.5,134.5 274.5,134.5C 269.36,135.488 264.026,135.821 258.5,135.5C 258.5,132.833 258.5,130.167 258.5,127.5C 264.026,127.179 269.36,127.512 274.5,128.5 Z"/></g>
<g><path style="opacity:0.394" fill="#bdbdbd" d="M 555.5,112.5 C 555.5,120.167 555.5,127.833 555.5,135.5C 552.615,135.806 549.948,135.473 547.5,134.5C 549.833,134.5 552.167,134.5 554.5,134.5C 554.175,126.981 554.508,119.648 555.5,112.5 Z"/></g>
<g><path style="opacity:0.561" fill="#a2a2a2" d="M 370.5,122.5 C 370.881,126.119 371.881,129.452 373.5,132.5C 372.791,133.404 371.791,133.737 370.5,133.5C 370.5,129.833 370.5,126.167 370.5,122.5 Z"/></g>
<g><path style="opacity:0.827" fill="#898989" d="M 413.5,139.5 C 414.441,134.93 414.774,130.263 414.5,125.5C 415.232,126.881 415.565,129.048 415.5,132C 415.475,134.929 414.809,137.429 413.5,139.5 Z"/></g>
<g><path style="opacity:0.384" fill="#b7b7b7" d="M 216.5,133.5 C 215.974,138.807 216.64,143.807 218.5,148.5C 217.5,148.5 216.5,148.5 215.5,148.5C 215.179,143.305 215.513,138.305 216.5,133.5 Z"/></g>
<g><path style="opacity:0.441" fill="#c0c0c0" d="M 347.5,131.5 C 347.179,136.695 347.513,141.695 348.5,146.5C 348.44,147.043 348.107,147.376 347.5,147.5C 346.185,142.014 346.185,136.68 347.5,131.5 Z"/></g>
<g><path style="opacity:1" fill="#edc29e" d="M 178.5,143.5 C 163.957,162.616 144.624,173.782 120.5,177C 94.8818,180.944 71.2152,175.944 49.5,162C 43.6633,157.33 38.33,152.163 33.5,146.5C 40.2954,150.133 46.9621,153.966 53.5,158C 59.5,160 65.5,162 71.5,164C 106.841,173.265 139.841,168.265 170.5,149C 172.746,147.743 174.079,145.91 174.5,143.5C 175.833,143.5 177.167,143.5 178.5,143.5 Z"/></g>
</svg>
