<svg xmlns="http://www.w3.org/2000/svg" xmlns:xlink="http://www.w3.org/1999/xlink" fill="none" version="1.1" width="29.99999058246658" height="20.999993026256902" viewBox="0 0 29.99999058246658 20.999993026256902"><defs><linearGradient x1="0.5" y1="1" x2="0.5" y2="0" id="master_svg0_41_8774"><stop offset="5.000000074505806%" stop-color="#FC7C2D" stop-opacity="1"/><stop offset="97.85714149475098%" stop-color="#F3D2C8" stop-opacity="1"/></linearGradient></defs><g transform="matrix(0,0.9999999403953552,-0.9999999403953552,0,29.99999058246658,-29.9999887943278)"><path d="M50.16559058246658,28.7714C49.94099058246658,29.5157,49.46619058246658,30,48.93839058246658,30L31.500130582466582,30C30.880874582466582,29.9998,30.34095258246658,29.3411,30.189904582466582,28.4014C29.92512068246658,26.7514,29.94703378246658,24.9914,30.19629558246658,23.0471C30.78612458246658,18.7,32.89435058246658,15.2757,33.06326058246658,10.93C33.90692058246658,13.3014,33.99092058246658,14.8814,34.07492058246658,17.2514C36.60497058246658,12.38,39.21994058246658,5.92571,38.62920058246658,0Q43.43639058246658,2.23857,45.37659058246658,13.8286C46.55629058246658,12.2471,46.472290582466584,8.95571,45.88149058246658,6.98C47.16889058246658,8.38714,53.17679058246658,18.7771,50.16559058246658,28.77L50.16559058246658,28.7714Z" fill="url(#master_svg0_41_8774)" fill-opacity="1" style="mix-blend-mode:passthrough"/></g></svg>