<svg xmlns="http://www.w3.org/2000/svg" xmlns:xlink="http://www.w3.org/1999/xlink" fill="none" version="1.1" width="21" height="34" viewBox="0 0 21 34"><g><path d="M18.9,0L2.1,0C0.941719,0,0,0.95293,0,2.125L0,31.875C0,33.0471,0.941719,34,2.1,34L18.9,34C20.0583,34,21,33.0471,21,31.875L21,2.125C21,0.95293,20.0583,0,18.9,0ZM19.0214,27.2199L2.22141,27.2199L2.22141,3.84492L19.0214,3.84492L19.0214,27.2199ZM11.9273,30.3178C11.9273,31.1146,11.2875,31.7621,10.5,31.7621C9.7125,31.7621,9.07266,31.1146,9.07266,30.3178C9.07266,29.5209,9.7125,28.8734,10.5,28.8734C11.2875,28.8734,11.9273,29.5176,11.9273,30.3178Z" fill="#000000" fill-opacity="1" style="mix-blend-mode:passthrough"/></g></svg>