<svg xmlns="http://www.w3.org/2000/svg" xmlns:xlink="http://www.w3.org/1999/xlink" fill="none" version="1.1" width="25" height="28.947368621826172" viewBox="0 0 25 28.947368621826172"><g><path d="M12.5,0L25,7.23684L25,21.7105L12.5,28.9474L0,21.7105L0,7.23684L12.5,0ZM12.5,3.04079L2.63158,8.75409L2.63158,20.1933L12.5,25.9066L22.3684,20.1933L22.3684,8.75409L12.5,3.04079ZM12.5,19.7368C9.59324,19.7368,7.23684,17.3804,7.23684,14.4737C7.23684,11.5669,9.59324,9.21053,12.5,9.21053C15.4067,9.21053,17.7632,11.5669,17.7632,14.4737C17.7632,17.3804,15.4067,19.7368,12.5,19.7368ZM12.5,17.1053C13.9534,17.1053,15.1316,15.9271,15.1316,14.4737C15.1316,13.0203,13.9534,11.8421,12.5,11.8421C11.0466,11.8421,9.86842,13.0203,9.86842,14.4737C9.86842,15.9271,11.0466,17.1053,12.5,17.1053Z" fill="#000000" fill-opacity="1" style="mix-blend-mode:passthrough"/></g></svg>